<mxfile host="app.diagrams.net" modified="2024-06-03T08:35:39.161Z" agent="Mozilla/5.0 (Windows NT 10.0; Win64; x64) AppleWebKit/537.36 (KHTML, like Gecko) Chrome/125.0.0.0 Safari/537.36" etag="cEDpZ6bsvh-vPUuel5n9" version="24.4.10" type="device">
  <diagram name="Страница — 1" id="Nsx3foo5pyS60lokYJd5">
    <mxGraphModel dx="684" dy="1956" grid="1" gridSize="10" guides="1" tooltips="1" connect="1" arrows="1" fold="1" page="1" pageScale="1" pageWidth="827" pageHeight="1169" math="0" shadow="0">
      <root>
        <mxCell id="0" />
        <mxCell id="1" parent="0" />
        <mxCell id="KBUTAiPppOCOwx_DP0NQ-3" style="edgeStyle=none;curved=1;rounded=0;orthogonalLoop=1;jettySize=auto;html=1;entryX=0.5;entryY=0;entryDx=0;entryDy=0;fontSize=12;startSize=8;endSize=8;" edge="1" parent="1" source="5uEH8obqKft7skx6TTNs-1" target="KBUTAiPppOCOwx_DP0NQ-1">
          <mxGeometry relative="1" as="geometry" />
        </mxCell>
        <mxCell id="5uEH8obqKft7skx6TTNs-1" value="" style="ellipse;whiteSpace=wrap;html=1;aspect=fixed;" parent="1" vertex="1">
          <mxGeometry x="235" y="-30" width="50" height="50" as="geometry" />
        </mxCell>
        <mxCell id="5uEH8obqKft7skx6TTNs-15" style="edgeStyle=none;curved=1;rounded=0;orthogonalLoop=1;jettySize=auto;html=1;fontSize=12;startSize=8;endSize=8;" parent="1" source="5uEH8obqKft7skx6TTNs-2" target="5uEH8obqKft7skx6TTNs-3" edge="1">
          <mxGeometry relative="1" as="geometry" />
        </mxCell>
        <mxCell id="5uEH8obqKft7skx6TTNs-2" value="Получение параметров для визуализации из запроса" style="rounded=0;whiteSpace=wrap;html=1;" parent="1" vertex="1">
          <mxGeometry x="160" y="120" width="200" height="60" as="geometry" />
        </mxCell>
        <mxCell id="5uEH8obqKft7skx6TTNs-16" style="edgeStyle=none;curved=1;rounded=0;orthogonalLoop=1;jettySize=auto;html=1;fontSize=12;startSize=8;endSize=8;" parent="1" source="5uEH8obqKft7skx6TTNs-3" target="5uEH8obqKft7skx6TTNs-4" edge="1">
          <mxGeometry relative="1" as="geometry" />
        </mxCell>
        <mxCell id="5uEH8obqKft7skx6TTNs-3" value="Построение SQL-запроса с параметрами" style="rounded=0;whiteSpace=wrap;html=1;" parent="1" vertex="1">
          <mxGeometry x="160" y="200" width="200" height="60" as="geometry" />
        </mxCell>
        <mxCell id="5uEH8obqKft7skx6TTNs-17" style="edgeStyle=none;curved=1;rounded=0;orthogonalLoop=1;jettySize=auto;html=1;fontSize=12;startSize=8;endSize=8;" parent="1" source="5uEH8obqKft7skx6TTNs-4" target="5uEH8obqKft7skx6TTNs-12" edge="1">
          <mxGeometry relative="1" as="geometry" />
        </mxCell>
        <mxCell id="5uEH8obqKft7skx6TTNs-4" value="Расчет минимальных и максимальных значений для широты и долготы" style="rounded=0;whiteSpace=wrap;html=1;verticalAlign=middle;" parent="1" vertex="1">
          <mxGeometry x="160" y="280" width="200" height="60" as="geometry" />
        </mxCell>
        <mxCell id="5uEH8obqKft7skx6TTNs-18" style="edgeStyle=none;curved=1;rounded=0;orthogonalLoop=1;jettySize=auto;html=1;fontSize=12;startSize=8;endSize=8;" parent="1" source="5uEH8obqKft7skx6TTNs-12" target="5uEH8obqKft7skx6TTNs-13" edge="1">
          <mxGeometry relative="1" as="geometry" />
        </mxCell>
        <mxCell id="5uEH8obqKft7skx6TTNs-12" value="Преобразование DataFrame в подходящий формат" style="rounded=0;whiteSpace=wrap;html=1;" parent="1" vertex="1">
          <mxGeometry x="160" y="360" width="200" height="60" as="geometry" />
        </mxCell>
        <mxCell id="5uEH8obqKft7skx6TTNs-13" value="" style="ellipse;whiteSpace=wrap;html=1;aspect=fixed;" parent="1" vertex="1">
          <mxGeometry x="235" y="440" width="50" height="50" as="geometry" />
        </mxCell>
        <mxCell id="KBUTAiPppOCOwx_DP0NQ-2" style="edgeStyle=none;curved=1;rounded=0;orthogonalLoop=1;jettySize=auto;html=1;fontSize=12;startSize=8;endSize=8;" edge="1" parent="1" source="KBUTAiPppOCOwx_DP0NQ-1" target="5uEH8obqKft7skx6TTNs-2">
          <mxGeometry relative="1" as="geometry" />
        </mxCell>
        <mxCell id="KBUTAiPppOCOwx_DP0NQ-1" value="Выбор заранее обозначенных районов исследования" style="rounded=0;whiteSpace=wrap;html=1;" vertex="1" parent="1">
          <mxGeometry x="160" y="40" width="200" height="60" as="geometry" />
        </mxCell>
      </root>
    </mxGraphModel>
  </diagram>
</mxfile>
